<?xml version="1.0" encoding="UTF-8"?>
<!DOCTYPE svg PUBLIC "-//W3C//DTD SVG 1.1//EN" "http://www.w3.org/Graphics/SVG/1.1/DTD/svg11.dtd">
<svg xmlns="http://www.w3.org/2000/svg" version="1.1" width="400px" height="400px" style="shape-rendering:geometricPrecision; text-rendering:geometricPrecision; image-rendering:optimizeQuality; fill-rule:evenodd; clip-rule:evenodd" xmlns:xlink="http://www.w3.org/1999/xlink">
<g><path style="opacity:0.188" fill="#4e505b" d="M 233.5,55.5 C 211.164,55.3334 188.831,55.5 166.5,56C 164.655,57.128 162.655,57.628 160.5,57.5C 161.842,56.207 163.509,55.3736 165.5,55C 188.337,54.1704 211.004,54.337 233.5,55.5 Z"/></g>
<g><path style="opacity:0.999" fill="#f8f9fa" d="M 233.5,55.5 C 234.791,55.2627 235.791,55.596 236.5,56.5C 236.877,58.8241 237.877,59.4908 239.5,58.5C 241.167,60.8333 243.167,62.8333 245.5,64.5C 246.338,64.8417 246.672,65.5084 246.5,66.5C 246.054,69.0101 246.72,71.0101 248.5,72.5C 248.054,75.0101 248.72,77.0101 250.5,78.5C 251.234,79.7079 251.567,81.0413 251.5,82.5C 251.054,85.0101 251.72,87.0101 253.5,88.5C 253.171,91.2282 253.837,93.5615 255.5,95.5C 255.654,100.289 256.987,104.622 259.5,108.5C 259.5,108.833 259.5,109.167 259.5,109.5C 259.259,111.898 259.926,113.898 261.5,115.5C 262.434,116.568 262.768,117.901 262.5,119.5C 262.259,121.898 262.926,123.898 264.5,125.5C 264.259,127.898 264.926,129.898 266.5,131.5C 267.301,133.042 267.634,134.708 267.5,136.5C 267.018,139.831 268.018,142.497 270.5,144.5C 271.234,145.708 271.567,147.041 271.5,148.5C 271.259,150.898 271.926,152.898 273.5,154.5C 273.054,157.01 273.72,159.01 275.5,160.5C 276.234,161.708 276.567,163.041 276.5,164.5C 276.259,166.898 276.926,168.898 278.5,170.5C 278.5,170.833 278.5,171.167 278.5,171.5C 278.528,174.916 279.528,177.916 281.5,180.5C 281.171,183.228 281.837,185.562 283.5,187.5C 283.32,191.286 284.32,194.619 286.5,197.5C 287.49,200.739 288.49,204.072 289.5,207.5C 289.259,209.898 289.926,211.898 291.5,213.5C 291.5,213.833 291.5,214.167 291.5,214.5C 291.259,216.898 291.926,218.898 293.5,220.5C 293.507,223.038 293.841,225.538 294.5,228C 294.684,229.376 295.351,230.209 296.5,230.5C 296.054,233.01 296.72,235.01 298.5,236.5C 299.499,239.829 300.499,243.162 301.5,246.5C 301.171,249.228 301.837,251.562 303.5,253.5C 303.179,255.048 302.179,255.715 300.5,255.5C 299.713,253.896 298.38,253.229 296.5,253.5C 295.508,253.672 294.842,253.338 294.5,252.5C 291.912,250.375 288.912,249.042 285.5,248.5C 284.365,246.787 282.698,246.12 280.5,246.5C 279.365,244.787 277.698,244.12 275.5,244.5C 272.916,242.528 269.916,241.528 266.5,241.5C 264.898,239.926 262.898,239.259 260.5,239.5C 258.162,237.96 255.495,237.294 252.5,237.5C 251.432,236.566 250.099,236.232 248.5,236.5C 248.167,236.5 247.833,236.5 247.5,236.5C 244.727,235.343 241.727,234.676 238.5,234.5C 238.41,230.786 237.41,227.452 235.5,224.5C 234.588,218.502 232.922,212.835 230.5,207.5C 228.592,203.097 227.259,198.43 226.5,193.5C 226.101,189.884 225.101,186.55 223.5,183.5C 221.565,179.105 220.231,174.438 219.5,169.5C 219.741,167.102 219.074,165.102 217.5,163.5C 217.59,160.848 216.924,158.515 215.5,156.5C 214.566,155.432 214.232,154.099 214.5,152.5C 214.405,150.214 213.738,148.214 212.5,146.5C 212.11,143.161 211.61,139.827 211,136.5C 210.617,135.944 210.117,135.611 209.5,135.5C 209.737,134.209 209.404,133.209 208.5,132.5C 206.36,126.206 204.193,119.873 202,113.5C 200.644,112.62 199.144,112.286 197.5,112.5C 196.167,112.5 195.5,113.167 195.5,114.5C 193.95,121.053 191.95,127.386 189.5,133.5C 187.72,134.99 187.054,136.99 187.5,139.5C 187.314,143.721 186.314,147.721 184.5,151.5C 182.692,152.918 182.025,154.918 182.5,157.5C 182.768,159.099 182.434,160.432 181.5,161.5C 179.517,164.799 178.517,168.466 178.5,172.5C 176.394,176.491 175.061,180.824 174.5,185.5C 174.768,187.099 174.434,188.432 173.5,189.5C 171.926,191.102 171.259,193.102 171.5,195.5C 171.768,197.099 171.434,198.432 170.5,199.5C 169.076,201.515 168.41,203.848 168.5,206.5C 168.737,207.791 168.404,208.791 167.5,209.5C 166.076,211.515 165.41,213.848 165.5,216.5C 165.101,220.116 164.101,223.45 162.5,226.5C 161.388,228.599 160.721,230.933 160.5,233.5C 155.871,234.959 151.204,236.293 146.5,237.5C 139.852,239.487 133.185,241.487 126.5,243.5C 124.102,243.259 122.102,243.926 120.5,245.5C 118.786,246.738 116.786,247.405 114.5,247.5C 112.847,247.66 111.514,248.326 110.5,249.5C 110.158,250.338 109.492,250.672 108.5,250.5C 107.209,250.263 106.209,250.596 105.5,251.5C 105.167,251.5 104.833,251.5 104.5,251.5C 102.632,252.263 100.965,253.263 99.5,254.5C 99.1583,255.338 98.4916,255.672 97.5,255.5C 95.8235,254.817 95.1568,253.483 95.5,251.5C 95.3284,250.508 95.6618,249.842 96.5,249.5C 98.5329,247.837 100.366,245.837 102,243.5C 101.747,238.915 101.914,234.249 102.5,229.5C 102.5,229.167 102.5,228.833 102.5,228.5C 104.472,225.916 105.472,222.916 105.5,219.5C 106.123,215.712 107.123,212.045 108.5,208.5C 110.28,207.01 110.946,205.01 110.5,202.5C 112.163,200.562 112.829,198.228 112.5,195.5C 114.828,191.58 116.161,187.246 116.5,182.5C 116.5,182.167 116.5,181.833 116.5,181.5C 118.074,179.898 118.741,177.898 118.5,175.5C 120.28,174.01 120.946,172.01 120.5,169.5C 122.074,167.898 122.741,165.898 122.5,163.5C 124.074,161.898 124.741,159.898 124.5,157.5C 124.5,157.167 124.5,156.833 124.5,156.5C 126.605,153.592 127.605,150.258 127.5,146.5C 130.109,145.623 132.776,144.29 135.5,142.5C 135.02,139.995 134.02,137.662 132.5,135.5C 134.289,132.444 134.956,129.111 134.5,125.5C 134.405,122.303 135.072,119.303 136.5,116.5C 137.931,115.22 138.598,113.553 138.5,111.5C 138.5,111.167 138.5,110.833 138.5,110.5C 140.435,106.787 141.768,102.787 142.5,98.5C 142.5,98.1667 142.5,97.8333 142.5,97.5C 144.411,93.767 145.744,89.767 146.5,85.5C 146.5,84.8333 146.5,84.1667 146.5,83.5C 148.074,81.8984 148.741,79.8984 148.5,77.5C 150.28,76.0101 150.946,74.0101 150.5,71.5C 152.213,70.3646 152.88,68.698 152.5,66.5C 152.328,65.5084 152.662,64.8417 153.5,64.5C 156.167,62.5 158.5,60.1667 160.5,57.5C 162.655,57.628 164.655,57.128 166.5,56C 188.831,55.5 211.164,55.3334 233.5,55.5 Z"/></g>
<g><path style="opacity:0.894" fill="#7b7d82" d="M 236.5,56.5 C 238.027,56.427 239.027,57.0937 239.5,58.5C 237.877,59.4908 236.877,58.8241 236.5,56.5 Z"/></g>
<g><path style="opacity:0.016" fill="#30363d" d="M 239.5,58.5 C 242.5,59.5 244.5,61.5 245.5,64.5C 243.167,62.8333 241.167,60.8333 239.5,58.5 Z"/></g>
<g><path style="opacity:0.396" fill="#5c6068" d="M 160.5,57.5 C 158.5,60.1667 156.167,62.5 153.5,64.5C 154.833,61.1667 157.167,58.8333 160.5,57.5 Z"/></g>
<g><path style="opacity:0.631" fill="#5e616c" d="M 152.5,66.5 C 152.88,68.698 152.213,70.3646 150.5,71.5C 150.402,69.4471 151.069,67.7804 152.5,66.5 Z"/></g>
<g><path style="opacity:0.647" fill="#656771" d="M 246.5,66.5 C 247.738,68.2143 248.405,70.2143 248.5,72.5C 246.72,71.0101 246.054,69.0101 246.5,66.5 Z"/></g>
<g><path style="opacity:0.608" fill="#555861" d="M 150.5,71.5 C 150.946,74.0101 150.28,76.0101 148.5,77.5C 148.595,75.2143 149.262,73.2143 150.5,71.5 Z"/></g>
<g><path style="opacity:0.518" fill="#5c5f67" d="M 248.5,72.5 C 249.738,74.2143 250.405,76.2143 250.5,78.5C 248.72,77.0101 248.054,75.0101 248.5,72.5 Z"/></g>
<g><path style="opacity:0.022" fill="#171a23" d="M 148.5,77.5 C 148.741,79.8984 148.074,81.8984 146.5,83.5C 146.595,81.2143 147.262,79.2143 148.5,77.5 Z"/></g>
<g><path style="opacity:0.522" fill="#656972" d="M 251.5,82.5 C 252.458,84.3024 253.125,86.3024 253.5,88.5C 251.72,87.0101 251.054,85.0101 251.5,82.5 Z"/></g>
<g><path style="opacity:0.014" fill="#2c2f39" d="M 146.5,85.5 C 145.744,89.767 144.411,93.767 142.5,97.5C 142.861,93.0845 144.194,89.0845 146.5,85.5 Z"/></g>
<g><path style="opacity:0.376" fill="#51555d" d="M 253.5,88.5 C 254.612,90.5994 255.279,92.9327 255.5,95.5C 253.837,93.5615 253.171,91.2282 253.5,88.5 Z"/></g>
<g><path style="opacity:0.584" fill="#5a5d69" d="M 255.5,95.5 C 257.279,99.5948 258.612,103.928 259.5,108.5C 256.987,104.622 255.654,100.289 255.5,95.5 Z"/></g>
<g><path style="opacity:0.073" fill="#31333d" d="M 142.5,98.5 C 141.768,102.787 140.435,106.787 138.5,110.5C 138.861,106.085 140.194,102.085 142.5,98.5 Z"/></g>
<g><path style="opacity:0.027" fill="#232531" d="M 197.5,112.5 C 197.167,113.5 196.5,114.167 195.5,114.5C 195.5,113.167 196.167,112.5 197.5,112.5 Z"/></g>
<g><path style="opacity:0.447" fill="#656871" d="M 259.5,109.5 C 260.738,111.214 261.405,113.214 261.5,115.5C 259.926,113.898 259.259,111.898 259.5,109.5 Z"/></g>
<g><path style="opacity:0.029" fill="#191b24" d="M 138.5,111.5 C 138.598,113.553 137.931,115.22 136.5,116.5C 136.402,114.447 137.069,112.78 138.5,111.5 Z"/></g>
<g><path style="opacity:0.431" fill="#73757e" d="M 262.5,119.5 C 263.738,121.214 264.405,123.214 264.5,125.5C 262.926,123.898 262.259,121.898 262.5,119.5 Z"/></g>
<g><path style="opacity:0.329" fill="#53555c" d="M 264.5,125.5 C 265.738,127.214 266.405,129.214 266.5,131.5C 264.926,129.898 264.259,127.898 264.5,125.5 Z"/></g>
<g><path style="opacity:0.231" fill="#4d515c" d="M 208.5,132.5 C 209.404,133.209 209.737,134.209 209.5,135.5C 208.733,134.828 208.066,133.995 207.5,133C 207.728,132.601 208.062,132.435 208.5,132.5 Z"/></g>
<g><path style="opacity:0.561" fill="#8a8d96" d="M 189.5,133.5 C 189.741,135.898 189.074,137.898 187.5,139.5C 187.054,136.99 187.72,134.99 189.5,133.5 Z"/></g>
<g><path style="opacity:0.733" fill="#797c85" d="M 209.5,135.5 C 210.117,135.611 210.617,135.944 211,136.5C 211.61,139.827 212.11,143.161 212.5,146.5C 210.742,143.146 209.742,139.479 209.5,135.5 Z"/></g>
<g><path style="opacity:0.682" fill="#7e808a" d="M 267.5,136.5 C 269.267,138.792 270.267,141.458 270.5,144.5C 268.018,142.497 267.018,139.831 267.5,136.5 Z"/></g>
<g><path style="opacity:1" fill="#cfd2d6" d="M 134.5,125.5 C 134.956,129.111 134.289,132.444 132.5,135.5C 134.02,137.662 135.02,139.995 135.5,142.5C 132.776,144.29 130.109,145.623 127.5,146.5C 129.081,139.147 131.414,132.147 134.5,125.5 Z"/></g>
<g><path style="opacity:0.024" fill="#282c34" d="M 212.5,146.5 C 213.738,148.214 214.405,150.214 214.5,152.5C 212.926,150.898 212.259,148.898 212.5,146.5 Z"/></g>
<g><path style="opacity:0.314" fill="#4f535e" d="M 271.5,148.5 C 272.738,150.214 273.405,152.214 273.5,154.5C 271.926,152.898 271.259,150.898 271.5,148.5 Z"/></g>
<g><path style="opacity:0.667" fill="#888a95" d="M 184.5,151.5 C 184.405,153.786 183.738,155.786 182.5,157.5C 182.025,154.918 182.692,152.918 184.5,151.5 Z"/></g>
<g><path style="opacity:0.047" fill="#2f333d" d="M 127.5,146.5 C 127.605,150.258 126.605,153.592 124.5,156.5C 124.975,152.916 125.975,149.583 127.5,146.5 Z"/></g>
<g><path style="opacity:0.42" fill="#595f67" d="M 273.5,154.5 C 274.458,156.302 275.125,158.302 275.5,160.5C 273.72,159.01 273.054,157.01 273.5,154.5 Z"/></g>
<g><path style="opacity:0.012" fill="#292c37" d="M 215.5,156.5 C 216.924,158.515 217.59,160.848 217.5,163.5C 216.076,161.485 215.41,159.152 215.5,156.5 Z"/></g>
<g><path style="opacity:0.553" fill="#5d5d66" d="M 124.5,157.5 C 124.741,159.898 124.074,161.898 122.5,163.5C 122.259,161.102 122.926,159.102 124.5,157.5 Z"/></g>
<g><path style="opacity:0.004" fill="#31343c" d="M 181.5,161.5 C 181.074,165.427 180.074,169.093 178.5,172.5C 178.517,168.466 179.517,164.799 181.5,161.5 Z"/></g>
<g><path style="opacity:0.373" fill="#484852" d="M 122.5,163.5 C 122.741,165.898 122.074,167.898 120.5,169.5C 120.595,167.214 121.262,165.214 122.5,163.5 Z"/></g>
<g><path style="opacity:0.196" fill="#5a5d66" d="M 217.5,163.5 C 219.074,165.102 219.741,167.102 219.5,169.5C 218.262,167.786 217.595,165.786 217.5,163.5 Z"/></g>
<g><path style="opacity:0.235" fill="#3c3f48" d="M 276.5,164.5 C 277.738,166.214 278.405,168.214 278.5,170.5C 276.926,168.898 276.259,166.898 276.5,164.5 Z"/></g>
<g><path style="opacity:0.592" fill="#4d5058" d="M 120.5,169.5 C 120.946,172.01 120.28,174.01 118.5,175.5C 118.595,173.214 119.262,171.214 120.5,169.5 Z"/></g>
<g><path style="opacity:0.294" fill="#484956" d="M 278.5,171.5 C 280.072,174.215 281.072,177.215 281.5,180.5C 279.528,177.916 278.528,174.916 278.5,171.5 Z"/></g>
<g><path style="opacity:0.014" fill="#13151c" d="M 118.5,175.5 C 118.741,177.898 118.074,179.898 116.5,181.5C 116.595,179.214 117.262,177.214 118.5,175.5 Z"/></g>
<g><path style="opacity:0.102" fill="#383b47" d="M 178.5,172.5 C 177.922,177.165 176.589,181.499 174.5,185.5C 175.061,180.824 176.394,176.491 178.5,172.5 Z"/></g>
<g><path style="opacity:0.361" fill="#51545d" d="M 281.5,180.5 C 282.612,182.599 283.279,184.933 283.5,187.5C 281.837,185.562 281.171,183.228 281.5,180.5 Z"/></g>
<g><path style="opacity:0.047" fill="#262833" d="M 223.5,183.5 C 225.101,186.55 226.101,189.884 226.5,193.5C 224.59,190.548 223.59,187.214 223.5,183.5 Z"/></g>
<g><path style="opacity:0.549" fill="#585a65" d="M 283.5,187.5 C 285.277,190.505 286.277,193.838 286.5,197.5C 284.32,194.619 283.32,191.286 283.5,187.5 Z"/></g>
<g><path style="opacity:0.349" fill="#3a3b46" d="M 116.5,182.5 C 116.161,187.246 114.828,191.58 112.5,195.5C 113.342,190.899 114.675,186.565 116.5,182.5 Z"/></g>
<g><path style="opacity:0.141" fill="#474a55" d="M 173.5,189.5 C 173.405,191.786 172.738,193.786 171.5,195.5C 171.259,193.102 171.926,191.102 173.5,189.5 Z"/></g>
<g><path style="opacity:0.478" fill="#4a4b55" d="M 112.5,195.5 C 112.829,198.228 112.163,200.562 110.5,202.5C 110.41,199.848 111.076,197.515 112.5,195.5 Z"/></g>
<g><path style="opacity:0.004" fill="#242732" d="M 170.5,199.5 C 170.59,202.152 169.924,204.485 168.5,206.5C 168.41,203.848 169.076,201.515 170.5,199.5 Z"/></g>
<g><path style="opacity:0.518" fill="#585b67" d="M 110.5,202.5 C 110.946,205.01 110.28,207.01 108.5,208.5C 108.595,206.214 109.262,204.214 110.5,202.5 Z"/></g>
<g><path style="opacity:0.263" fill="#4c4f57" d="M 289.5,207.5 C 290.738,209.214 291.405,211.214 291.5,213.5C 289.926,211.898 289.259,209.898 289.5,207.5 Z"/></g>
<g><path style="opacity:0.016" fill="#282a35" d="M 167.5,209.5 C 167.59,212.152 166.924,214.485 165.5,216.5C 165.41,213.848 166.076,211.515 167.5,209.5 Z"/></g>
<g><path style="opacity:0.157" fill="#383b45" d="M 230.5,207.5 C 232.922,212.835 234.588,218.502 235.5,224.5C 233.077,219.16 231.411,213.493 230.5,207.5 Z"/></g>
<g><path style="opacity:0.349" fill="#5a5d66" d="M 291.5,214.5 C 292.738,216.214 293.405,218.214 293.5,220.5C 291.926,218.898 291.259,216.898 291.5,214.5 Z"/></g>
<g><path style="opacity:0.278" fill="#525461" d="M 105.5,219.5 C 105.472,222.916 104.472,225.916 102.5,228.5C 102.928,225.215 103.928,222.215 105.5,219.5 Z"/></g>
<g><path style="opacity:0.027" fill="#1c1e28" d="M 162.5,226.5 C 162.829,229.228 162.163,231.562 160.5,233.5C 160.721,230.933 161.388,228.599 162.5,226.5 Z"/></g>
<g><path style="opacity:0.792" fill="#9699a2" d="M 293.5,220.5 C 294.79,223.642 295.79,226.975 296.5,230.5C 295.351,230.209 294.684,229.376 294.5,228C 293.841,225.538 293.507,223.038 293.5,220.5 Z"/></g>
<g><path style="opacity:0.145" fill="#3c404a" d="M 235.5,224.5 C 237.41,227.452 238.41,230.786 238.5,234.5C 236.899,231.45 235.899,228.116 235.5,224.5 Z"/></g>
<g><path style="opacity:0.533" fill="#64676e" d="M 296.5,230.5 C 297.738,232.214 298.405,234.214 298.5,236.5C 296.72,235.01 296.054,233.01 296.5,230.5 Z"/></g>
<g><path style="opacity:0.039" fill="#1b1d28" d="M 160.5,233.5 C 160.423,234.75 159.756,235.583 158.5,236C 154.728,236.406 151.061,237.239 147.5,238.5C 146.893,238.376 146.56,238.043 146.5,237.5C 151.204,236.293 155.871,234.959 160.5,233.5 Z"/></g>
<g><path style="opacity:0.078" fill="#2e303a" d="M 238.5,234.5 C 241.727,234.676 244.727,235.343 247.5,236.5C 247.565,236.938 247.399,237.272 247,237.5C 243.911,236.972 241.077,235.972 238.5,234.5 Z"/></g>
<g><path style="opacity:0.388" fill="#5a5c69" d="M 248.5,236.5 C 250.099,236.232 251.432,236.566 252.5,237.5C 250.999,238.443 249.665,238.109 248.5,236.5 Z"/></g>
<g><path style="opacity:0.396" fill="#63656c" d="M 252.5,237.5 C 255.495,237.294 258.162,237.96 260.5,239.5C 257.712,239.915 255.045,239.249 252.5,237.5 Z"/></g>
<g><path style="opacity:0.427" fill="#6c6f7a" d="M 260.5,239.5 C 262.898,239.259 264.898,239.926 266.5,241.5C 264.214,241.405 262.214,240.738 260.5,239.5 Z"/></g>
<g><path style="opacity:0.981" fill="#cccdd4" d="M 102.5,229.5 C 101.914,234.249 101.747,238.915 102,243.5C 100.366,245.837 98.5329,247.837 96.5,249.5C 97.898,242.557 99.898,235.891 102.5,229.5 Z"/></g>
<g><path style="opacity:0.369" fill="#50545c" d="M 266.5,241.5 C 269.916,241.528 272.916,242.528 275.5,244.5C 272.145,244.31 269.145,243.31 266.5,241.5 Z"/></g>
<g><path style="opacity:0.051" fill="#22222e" d="M 126.5,243.5 C 124.786,244.738 122.786,245.405 120.5,245.5C 122.102,243.926 124.102,243.259 126.5,243.5 Z"/></g>
<g><path style="opacity:0.573" fill="#646772" d="M 275.5,244.5 C 277.698,244.12 279.365,244.787 280.5,246.5C 278.597,246.204 276.93,245.537 275.5,244.5 Z"/></g>
<g><path style="opacity:0.506" fill="#51545e" d="M 280.5,246.5 C 282.698,246.12 284.365,246.787 285.5,248.5C 283.447,248.598 281.78,247.931 280.5,246.5 Z"/></g>
<g><path style="opacity:0.008" fill="#1f212b" d="M 114.5,247.5 C 113.713,249.104 112.38,249.771 110.5,249.5C 111.514,248.326 112.847,247.66 114.5,247.5 Z"/></g>
<g><path style="opacity:0.071" fill="#1a1c28" d="M 108.5,250.5 C 107.828,251.267 106.995,251.934 106,252.5C 105.601,252.272 105.435,251.938 105.5,251.5C 106.209,250.596 107.209,250.263 108.5,250.5 Z"/></g>
<g><path style="opacity:0.008" fill="#1b1f29" d="M 285.5,248.5 C 288.912,249.042 291.912,250.375 294.5,252.5C 291.088,251.958 288.088,250.625 285.5,248.5 Z"/></g>
<g><path style="opacity:0.573" fill="#585c61" d="M 301.5,246.5 C 302.612,248.599 303.279,250.933 303.5,253.5C 301.837,251.562 301.171,249.228 301.5,246.5 Z"/></g>
<g><path style="opacity:0.008" fill="#191a24" d="M 104.5,251.5 C 103.7,253.741 102.034,254.741 99.5,254.5C 100.965,253.263 102.632,252.263 104.5,251.5 Z"/></g>
<g><path style="opacity:0.161" fill="#3b3d4c" d="M 95.5,251.5 C 95.1568,253.483 95.8235,254.817 97.5,255.5C 96.1512,256.797 94.8179,256.63 93.5,255C 94.0848,253.698 94.7515,252.531 95.5,251.5 Z"/></g>
<g><path style="opacity:0.114" fill="#1f212c" d="M 296.5,253.5 C 298.38,253.229 299.713,253.896 300.5,255.5C 298.847,255.34 297.514,254.674 296.5,253.5 Z"/></g>
<g><path style="opacity:0.012" fill="#303342" d="M 303.5,253.5 C 304.404,254.209 304.737,255.209 304.5,256.5C 302.901,256.768 301.568,256.434 300.5,255.5C 302.179,255.715 303.179,255.048 303.5,253.5 Z"/></g>
<g><path style="opacity:0.169" fill="#561e15" d="M 156.5,265.5 C 154.938,265.267 153.605,264.6 152.5,263.5C 151.167,260.833 149.833,260.833 148.5,263.5C 148.312,261.897 148.812,260.563 150,259.5C 152.664,260.998 154.83,262.998 156.5,265.5 Z"/></g>
<g><path style="opacity:1" fill="#d75a1f" d="M 152.5,263.5 C 153.605,264.6 154.938,265.267 156.5,265.5C 161.406,270.261 167.406,272.928 174.5,273.5C 174.611,274.117 174.944,274.617 175.5,275C 178.146,275.497 180.813,275.664 183.5,275.5C 184.263,276.268 185.263,276.768 186.5,277C 198.85,277.677 211.183,277.51 223.5,276.5C 218.417,278.078 213.084,278.745 207.5,278.5C 199.826,278.666 192.159,278.5 184.5,278C 179.949,276.785 175.282,276.119 170.5,276C 164.478,272.534 158.478,269.367 152.5,266.5C 152.5,265.5 152.5,264.5 152.5,263.5 Z"/></g>
<g><path style="opacity:0.125" fill="#50180d" d="M 156.5,265.5 C 162.302,268.737 168.302,271.404 174.5,273.5C 167.406,272.928 161.406,270.261 156.5,265.5 Z"/></g>
<g><path style="opacity:1" fill="#fb5c05" d="M 152.5,263.5 C 152.5,264.5 152.5,265.5 152.5,266.5C 158.478,269.367 164.478,272.534 170.5,276C 175.282,276.119 179.949,276.785 184.5,278C 192.159,278.5 199.826,278.666 207.5,278.5C 207.389,279.117 207.056,279.617 206.5,280C 204.5,280.167 202.5,280.333 200.5,280.5C 195.504,279.777 190.504,279.61 185.5,280C 184.833,280.333 184.167,280.667 183.5,281C 186.146,281.497 188.813,281.664 191.5,281.5C 191.5,282.833 191.5,284.167 191.5,285.5C 196.988,285.248 202.322,285.915 207.5,287.5C 207.5,288.833 207.5,290.167 207.5,291.5C 215.263,294.532 223.263,297.199 231.5,299.5C 231.488,302.142 232.821,303.475 235.5,303.5C 235.082,304.222 234.416,304.722 233.5,305C 233.833,305.333 234.167,305.667 234.5,306C 233.027,306.71 232.36,307.876 232.5,309.5C 230.858,311.081 228.858,311.747 226.5,311.5C 226.5,312.5 226.5,313.5 226.5,314.5C 224.011,314.298 221.677,314.798 219.5,316C 218.663,317.011 218.33,318.178 218.5,319.5C 217.512,320.795 216.512,322.128 215.5,323.5C 215.167,324.5 214.5,325.167 213.5,325.5C 210.206,327.901 208.373,331.234 208,335.5C 207.692,340.622 207.525,345.622 207.5,350.5C 204.721,348.376 201.721,346.709 198.5,345.5C 197.167,342.167 195.833,338.833 194.5,335.5C 192.045,326.383 190.879,317.049 191,307.5C 189.245,306.33 188.245,304.663 188,302.5C 187.329,301.748 186.496,301.414 185.5,301.5C 184.833,301.5 184.167,301.5 183.5,301.5C 183.047,300.542 182.381,299.708 181.5,299C 179.5,298.833 177.5,298.667 175.5,298.5C 171.173,298.556 167.173,299.556 163.5,301.5C 163.38,304.48 162.713,307.313 161.5,310C 159.802,308.628 157.802,307.462 155.5,306.5C 155.55,301.955 153.883,298.289 150.5,295.5C 148.806,284.915 148.14,274.249 148.5,263.5C 149.833,260.833 151.167,260.833 152.5,263.5 Z"/></g>
<g><path style="opacity:1" fill="#f34c18" d="M 251.5,284.5 C 251.5,284.833 251.5,285.167 251.5,285.5C 249.156,288.369 247.823,291.702 247.5,295.5C 247.672,296.492 247.338,297.158 246.5,297.5C 242.849,299.477 240.516,302.477 239.5,306.5C 236.547,306.15 234.213,307.15 232.5,309.5C 232.36,307.876 233.027,306.71 234.5,306C 234.167,305.667 233.833,305.333 233.5,305C 234.416,304.722 235.082,304.222 235.5,303.5C 236.568,302.566 237.901,302.232 239.5,302.5C 239.5,300.5 239.5,298.5 239.5,296.5C 242.575,296.749 243.242,295.415 241.5,292.5C 241.76,290.382 242.76,288.716 244.5,287.5C 245.88,284.682 245.713,282.015 244,279.5C 242.667,280.833 241.333,282.167 240,283.5C 241.101,279.728 239.601,277.394 235.5,276.5C 232.205,275.599 228.872,275.599 225.5,276.5C 226.167,275.833 226.833,275.167 227.5,274.5C 232.907,274.334 237.574,272.667 241.5,269.5C 244.687,270.04 247.187,269.04 249,266.5C 249.772,266.645 250.439,266.978 251,267.5C 251.499,273.157 251.666,278.824 251.5,284.5 Z"/></g>
<g><path style="opacity:0.243" fill="#55100a" d="M 241.5,269.5 C 237.574,272.667 232.907,274.334 227.5,274.5C 231.94,272.462 236.607,270.796 241.5,269.5 Z"/></g>
<g><path style="opacity:0.129" fill="#421209" d="M 174.5,273.5 C 177.727,273.676 180.727,274.343 183.5,275.5C 180.813,275.664 178.146,275.497 175.5,275C 174.944,274.617 174.611,274.117 174.5,273.5 Z"/></g>
<g><path style="opacity:0.059" fill="#410e0a" d="M 227.5,274.5 C 226.833,275.167 226.167,275.833 225.5,276.5C 224.833,276.5 224.167,276.5 223.5,276.5C 211.183,277.51 198.85,277.677 186.5,277C 185.263,276.768 184.263,276.268 183.5,275.5C 198.206,276.943 212.873,276.609 227.5,274.5 Z"/></g>
<g><path style="opacity:0.131" fill="#5a1714" d="M 251.5,284.5 C 251.666,278.824 251.499,273.157 251,267.5C 250.439,266.978 249.772,266.645 249,266.5C 247.187,269.04 244.687,270.04 241.5,269.5C 243.1,268.356 244.767,267.189 246.5,266C 248.441,265.257 250.274,265.424 252,266.5C 252.819,272.681 252.653,278.681 251.5,284.5 Z"/></g>
<g><path style="opacity:1" fill="#fd5208" d="M 235.5,303.5 C 232.821,303.475 231.488,302.142 231.5,299.5C 223.263,297.199 215.263,294.532 207.5,291.5C 207.5,290.167 207.5,288.833 207.5,287.5C 202.322,285.915 196.988,285.248 191.5,285.5C 191.5,284.167 191.5,282.833 191.5,281.5C 188.813,281.664 186.146,281.497 183.5,281C 184.167,280.667 184.833,280.333 185.5,280C 190.504,279.61 195.504,279.777 200.5,280.5C 202.5,280.333 204.5,280.167 206.5,280C 207.056,279.617 207.389,279.117 207.5,278.5C 213.084,278.745 218.417,278.078 223.5,276.5C 224.167,276.5 224.833,276.5 225.5,276.5C 228.872,275.599 232.205,275.599 235.5,276.5C 239.601,277.394 241.101,279.728 240,283.5C 241.333,282.167 242.667,280.833 244,279.5C 245.713,282.015 245.88,284.682 244.5,287.5C 242.76,288.716 241.76,290.382 241.5,292.5C 243.242,295.415 242.575,296.749 239.5,296.5C 239.5,298.5 239.5,300.5 239.5,302.5C 237.901,302.232 236.568,302.566 235.5,303.5 Z"/></g>
<g><path style="opacity:0.443" fill="#6a2211" d="M 148.5,263.5 C 148.14,274.249 148.806,284.915 150.5,295.5C 149.224,293.438 148.39,291.104 148,288.5C 145.97,279.966 146.137,271.633 148.5,263.5 Z"/></g>
<g><path style="opacity:0.576" fill="#7c281a" d="M 251.5,285.5 C 251.128,289.297 249.794,292.63 247.5,295.5C 247.823,291.702 249.156,288.369 251.5,285.5 Z"/></g>
<g><path style="opacity:0.714" fill="#983f1e" d="M 150.5,295.5 C 153.883,298.289 155.55,301.955 155.5,306.5C 152.887,303.355 151.221,299.689 150.5,295.5 Z"/></g>
<g><path style="opacity:0.541" fill="#732b17" d="M 246.5,297.5 C 244.542,300.792 242.209,303.792 239.5,306.5C 240.516,302.477 242.849,299.477 246.5,297.5 Z"/></g>
<g><path style="opacity:0.176" fill="#511b10" d="M 183.5,301.5 C 184.167,301.5 184.833,301.5 185.5,301.5C 186.962,303.972 188.128,306.639 189,309.5C 189.499,315.491 189.666,321.491 189.5,327.5C 188.673,322.349 188.173,317.016 188,311.5C 187.164,307.809 185.664,304.476 183.5,301.5 Z"/></g>
<g><path style="opacity:0.675" fill="#943f1c" d="M 183.5,301.5 C 177.933,299.767 172.6,300.267 167.5,303C 165.208,306.416 163.041,309.916 161,313.5C 158.577,311.583 156.744,309.25 155.5,306.5C 157.802,307.462 159.802,308.628 161.5,310C 162.713,307.313 163.38,304.48 163.5,301.5C 167.173,299.556 171.173,298.556 175.5,298.5C 177.5,298.667 179.5,298.833 181.5,299C 182.381,299.708 183.047,300.542 183.5,301.5 Z"/></g>
<g><path style="opacity:0.039" fill="#410f04" d="M 234.5,310.5 C 233.738,312.262 232.404,313.262 230.5,313.5C 231.262,311.738 232.596,310.738 234.5,310.5 Z"/></g>
<g><path style="opacity:0.961" fill="#e86119" d="M 185.5,301.5 C 186.496,301.414 187.329,301.748 188,302.5C 188.245,304.663 189.245,306.33 191,307.5C 190.879,317.049 192.045,326.383 194.5,335.5C 192.831,332.956 191.165,330.29 189.5,327.5C 189.666,321.491 189.499,315.491 189,309.5C 188.128,306.639 186.962,303.972 185.5,301.5 Z"/></g>
<g><path style="opacity:0.992" fill="#c15220" d="M 239.5,306.5 C 238.421,308.543 236.754,309.876 234.5,310.5C 232.596,310.738 231.262,311.738 230.5,313.5C 228.206,315.653 225.54,317.32 222.5,318.5C 221.041,318.433 219.708,318.766 218.5,319.5C 218.33,318.178 218.663,317.011 219.5,316C 221.677,314.798 224.011,314.298 226.5,314.5C 226.5,313.5 226.5,312.5 226.5,311.5C 228.858,311.747 230.858,311.081 232.5,309.5C 234.213,307.15 236.547,306.15 239.5,306.5 Z"/></g>
<g><path style="opacity:0.239" fill="#782f18" d="M 222.5,318.5 C 220.45,320.547 218.117,322.214 215.5,323.5C 216.512,322.128 217.512,320.795 218.5,319.5C 219.708,318.766 221.041,318.433 222.5,318.5 Z"/></g>
<g><path style="opacity:0.188" fill="#903b1a" d="M 189.5,327.5 C 191.165,330.29 192.831,332.956 194.5,335.5C 195.833,338.833 197.167,342.167 198.5,345.5C 192.903,340.875 189.903,334.875 189.5,327.5 Z"/></g>
<g><path style="opacity:0.231" fill="#82381d" d="M 213.5,325.5 C 210.618,330.336 208.951,335.67 208.5,341.5C 209.799,345.396 210.466,349.396 210.5,353.5C 207.148,353.47 204.482,352.137 202.5,349.5C 202.027,348.094 201.027,347.427 199.5,347.5C 199.167,346.833 198.833,346.167 198.5,345.5C 201.721,346.709 204.721,348.376 207.5,350.5C 207.525,345.622 207.692,340.622 208,335.5C 208.373,331.234 210.206,327.901 213.5,325.5 Z"/></g>
<g><path style="opacity:0.11" fill="#3a0300" d="M 199.5,347.5 C 201.027,347.427 202.027,348.094 202.5,349.5C 200.973,349.573 199.973,348.906 199.5,347.5 Z"/></g>
</svg>
