<svg xmlns="http://www.w3.org/2000/svg" xmlns:xlink="http://www.w3.org/1999/xlink" version="1.1" width="498" height="500" style="shape-rendering:geometricPrecision; text-rendering:geometricPrecision; image-rendering:optimizeQuality; fill-rule:evenodd; clip-rule:evenodd"><rect id="backgroundrect" width="100%" height="100%" x="0" y="0" fill="none" stroke="none"/><defs><linearGradient id="svg_109" spreadMethod="pad"><stop stop-color="#4a90d6" stop-opacity="1" offset="0"/><stop stop-color="#b56f29" stop-opacity="1" offset="1"/><stop stop-color="#b56f29" stop-opacity="1" offset="1"/></linearGradient></defs>






















































<g class="currentLayer" style=""><title>Layer 1</title><g id="svg_1" class="" fill="#2563eb" fill-opacity="1"><path style="opacity:0.997" fill="#2563eb" d="M 113.5,8.5 C 205.5,8.5 297.5,8.5 389.5,8.5C 389.833,100.502 389.5,192.502 388.5,284.5C 363.253,259.588 337.92,234.588 312.5,209.5C 312.464,200.197 312.464,190.864 312.5,181.5C 312.5,149.833 312.5,118.167 312.5,86.5C 271.337,85.5014 230.003,85.168 188.5,85.5C 164.004,60.5028 139.171,35.5028 114,10.5C 113.536,9.90558 113.369,9.23891 113.5,8.5 Z" id="svg_2" fill-opacity="1"/></g><g id="svg_3" class="selected" fill="#22d3ee" fill-opacity="1" stroke-opacity="1" stroke="#ffffff"><path style="opacity:0.998" fill="#22d3ee" d="M 107.5,17.5 C 130.833,40.5 154.167,63.5 177.5,86.5C 178.793,88.2959 180.293,89.9625 182,91.5C 182.5,105.496 182.667,119.496 182.5,133.5C 183.555,159.786 183.555,186.12 182.5,212.5C 182.285,214.179 182.952,215.179 184.5,215.5C 225.341,214.928 266.007,214.928 306.5,215.5C 331.479,240.812 356.479,266.146 381.5,291.5C 369.185,292.499 356.851,292.832 344.5,292.5C 264.833,292.5 185.167,292.5 105.5,292.5C 105.5,291.833 105.5,291.167 105.5,290.5C 106.167,199.5 106.833,108.5 107.5,17.5 Z" id="svg_4" fill-opacity="1" stroke="#ffffff" stroke-opacity="1"/></g><g id="svg_5"><path style="opacity:0.098" fill="#7074fc" d="M 113.5,8.5 C 113.369,9.23891 113.536,9.90558 114,10.5C 139.171,35.5028 164.004,60.5028 188.5,85.5C 188.5,85.8333 188.5,86.1667 188.5,86.5C 186.745,85.9278 185.078,85.0945 183.5,84C 159.542,59.3746 135.542,34.7079 111.5,10C 111.836,8.97008 112.503,8.47008 113.5,8.5 Z" id="svg_6"/></g><g id="svg_7"><path style="opacity:0.075" fill="#6569fc" d="M 181.5,86.5 C 180.298,87.4054 178.964,87.4054 177.5,86.5C 154.167,63.5 130.833,40.5 107.5,17.5C 107.158,16.6618 106.492,16.3284 105.5,16.5C 106.389,14.1414 107.722,13.9747 109.5,16C 132.983,39.9828 156.983,63.4828 181.5,86.5 Z" id="svg_8"/></g><g id="svg_9"><path style="opacity:0.996" fill="#8a9df9" d="M 188.5,86.5 C 188.5,86.1667 188.5,85.8333 188.5,85.5C 230.003,85.168 271.337,85.5014 312.5,86.5C 310.833,86.5 309.167,86.5 307.5,86.5C 267.695,87.0581 228.028,87.0581 188.5,86.5 Z" id="svg_10"/></g><g id="svg_11"><path style="opacity:0.996" fill="#6b7ffa" d="M 177.5,86.5 C 178.964,87.4054 180.298,87.4054 181.5,86.5C 181.585,88.9288 182.585,90.9288 184.5,92.5C 184.215,106.249 183.549,119.916 182.5,133.5C 182.667,119.496 182.5,105.496 182,91.5C 180.293,89.9625 178.793,88.2959 177.5,86.5 Z" id="svg_12"/></g><g id="svg_13"><path style="opacity:0.332" fill="#6c8cf8" d="M 307.5,86.5 C 309.167,86.5 310.833,86.5 312.5,86.5C 312.5,118.167 312.5,149.833 312.5,181.5C 311.794,172.808 311.127,163.975 310.5,155C 311.056,144.006 311.389,133.006 311.5,122C 310.895,113.506 310.395,105.006 310,96.5C 308.56,94.4102 308.726,92.2436 310.5,90C 309.068,89.9178 308.068,88.7511 307.5,86.5 Z" id="svg_14"/></g><g id="svg_15"><path style="opacity:0.788" fill="#6d83fa" d="M 182.5,212.5 C 183.401,213.29 184.068,214.29 184.5,215.5C 182.952,215.179 182.285,214.179 182.5,212.5 Z" id="svg_16"/></g><g id="svg_17"><path style="opacity:0.359" fill="#e7ebfe" d="M 105.5,16.5 C 106.492,16.3284 107.158,16.6618 107.5,17.5C 106.833,108.5 106.167,199.5 105.5,290.5C 105.5,199.167 105.5,107.833 105.5,16.5 Z" id="svg_18"/></g><g id="svg_19"><path style="opacity:0.082" fill="#69a6f8" d="M 344.5,293.5 C 344.5,293.167 344.5,292.833 344.5,292.5C 356.851,292.832 369.185,292.499 381.5,291.5C 356.479,266.146 331.479,240.812 306.5,215.5C 307.822,215.67 308.989,215.337 310,214.5C 310.333,215.5 310.667,216.5 311,217.5C 335.667,240.833 359.667,264.833 383,289.5C 383.49,290.793 383.657,292.127 383.5,293.5C 370.349,293.682 357.349,293.682 344.5,293.5 Z" id="svg_20"/></g><g id="svg_21"><path style="opacity:0.141" fill="#679ff7" d="M 389.5,8.5 C 390.359,100.573 390.859,192.573 391,284.5C 390.309,287.266 388.809,287.933 386.5,286.5C 362.42,262.601 338.42,238.434 314.5,214C 313.5,213.667 312.5,213.333 311.5,213C 312.337,211.989 312.67,210.822 312.5,209.5C 337.92,234.588 363.253,259.588 388.5,284.5C 389.5,192.502 389.833,100.502 389.5,8.5 Z" id="svg_22"/></g><g id="svg_23"><path style="opacity:0.196" fill="#5f94f5" d="M 105.5,292.5 C 185.167,292.5 264.833,292.5 344.5,292.5C 344.5,292.833 344.5,293.167 344.5,293.5C 264.518,293.409 185.185,293.576 106.5,294C 105.944,293.617 105.611,293.117 105.5,292.5 Z" id="svg_24"/></g><g id="svg_25" class="" fill="#22d3ee" fill-opacity="1"><path style="opacity:0.981" fill="#22d3ee" d="M 186.5,329.5 C 190.671,330.262 194.671,331.262 198.5,332.5C 224.295,344.764 232.461,364.431 223,391.5C 220.091,398.324 216.424,404.658 212,410.5C 201.899,422.604 191.065,434.104 179.5,445C 182.039,445.796 184.372,445.629 186.5,444.5C 186.5,443.833 186.833,443.5 187.5,443.5C 202.658,444.496 217.991,444.83 233.5,444.5C 233.5,452.833 233.5,461.167 233.5,469.5C 213.167,469.5 192.833,469.5 172.5,469.5C 160.167,469.5 147.833,469.5 135.5,469.5C 135.334,463.491 135.501,457.491 136,451.5C 136.717,450.956 137.217,450.289 137.5,449.5C 141.1,447.57 144.1,444.903 146.5,441.5C 149.257,437.737 152.59,434.737 156.5,432.5C 162.442,428.227 167.776,423.227 172.5,417.5C 175.903,415.1 178.57,412.1 180.5,408.5C 185.588,402.087 190.255,395.42 194.5,388.5C 197.142,384.513 198.475,380.013 198.5,375C 198.592,372.179 197.926,369.679 196.5,367.5C 195.833,367.5 195.5,367.167 195.5,366.5C 196.465,365.279 196.298,363.946 195,362.5C 186.121,354.109 175.955,352.276 164.5,357C 159.212,360.232 154.378,364.065 150,368.5C 144.297,362.965 138.797,357.298 133.5,351.5C 139.315,344.695 146.315,339.362 154.5,335.5C 165.019,332.061 175.686,330.061 186.5,329.5 Z" id="svg_26" fill-opacity="1"/></g><g id="svg_27"><path style="opacity:0.129" fill="#7ec5fb" d="M 441.5,329.5 C 431.745,329.981 422.078,331.648 412.5,334.5C 421.546,330.066 431.212,328.399 441.5,329.5 Z" id="svg_28"/></g><g id="svg_29" class="" fill="#2563eb" fill-opacity="1"><path style="opacity:0.981" fill="#2563eb" d="M 441.5,329.5 C 442.167,329.5 442.5,329.833 442.5,330.5C 460.329,334.483 472.496,345.15 479,362.5C 481.5,370.49 483.334,378.49 484.5,386.5C 484.5,395.833 484.5,405.167 484.5,414.5C 483.137,428.756 478.637,442.089 471,454.5C 449.206,476.497 426.04,478.164 401.5,459.5C 393.697,448.899 388.364,437.232 385.5,424.5C 384.659,422.621 384.325,420.621 384.5,418.5C 384.384,410.307 383.717,402.307 382.5,394.5C 383.729,386.855 384.895,379.188 386,371.5C 386.566,369.277 387.4,367.277 388.5,365.5C 390.685,361.787 392.352,357.787 393.5,353.5C 397.096,348.564 401.096,343.897 405.5,339.5C 406.992,336.677 409.326,335.01 412.5,334.5C 422.078,331.648 431.745,329.981 441.5,329.5 Z M 446.5,359.5 C 446.657,360.873 446.49,362.207 446,363.5C 435.824,379.857 425.658,396.19 415.5,412.5C 414.542,412.953 413.708,413.619 413,414.5C 411.75,400.321 412.75,386.321 416,372.5C 421.463,356.677 431.63,352.344 446.5,359.5 Z M 455.5,424.5 C 453.408,430.784 450.741,436.784 447.5,442.5C 440.231,448.315 432.564,448.815 424.5,444C 422.789,442.867 422.289,441.367 423,439.5C 434.07,422.607 444.904,405.607 455.5,388.5C 456.54,400.495 456.54,412.495 455.5,424.5 Z" id="svg_30" fill-opacity="1"/></g><g id="svg_31"><path style="opacity:0.075" fill="#75bef8" d="M 442.5,330.5 C 454.634,331.485 464.468,336.819 472,346.5C 475.77,352.603 479.103,358.937 482,365.5C 483.988,372.353 484.821,379.353 484.5,386.5C 483.334,378.49 481.5,370.49 479,362.5C 472.496,345.15 460.329,334.483 442.5,330.5 Z" id="svg_32"/></g><g id="svg_33"><path style="opacity:0.192" fill="#85b3fe" d="M 186.5,329.5 C 175.686,330.061 165.019,332.061 154.5,335.5C 155.347,334.034 156.68,333.2 158.5,333C 167.614,330.092 176.947,328.926 186.5,329.5 Z" id="svg_34"/></g><g id="svg_35"><path style="opacity:0.153" fill="#7ab9f9" d="M 405.5,339.5 C 401.096,343.897 397.096,348.564 393.5,353.5C 395.746,347.259 399.746,342.592 405.5,339.5 Z" id="svg_36"/></g><g id="svg_37"><path style="opacity:0.212" fill="#8dcdfb" d="M 393.5,353.5 C 392.352,357.787 390.685,361.787 388.5,365.5C 389.087,360.999 390.754,356.999 393.5,353.5 Z" id="svg_38"/></g><g id="svg_39"><path style="opacity:0.09" fill="#7897fa" d="M 53.5,361.5 C 62.4446,360.02 71.4446,360.353 80.5,362.5C 80.0831,363.124 79.4164,363.457 78.5,363.5C 70.2556,361.819 61.9223,361.152 53.5,361.5 Z" id="svg_40"/></g><g id="svg_41" class="" fill="#22d3ee" fill-opacity="1"><path style="opacity:0.982" fill="#22d3ee" d="M 53.5,361.5 C 61.9223,361.152 70.2556,361.819 78.5,363.5C 79.4164,363.457 80.0831,363.124 80.5,362.5C 81.1667,362.5 81.5,362.833 81.5,363.5C 85.9532,365.561 90.2866,367.894 94.5,370.5C 109.276,385.913 114.609,404.246 110.5,425.5C 87.3273,425.169 64.3273,425.502 41.5,426.5C 43.0307,435.26 47.6973,441.593 55.5,445.5C 66.4826,450.831 77.4826,450.831 88.5,445.5C 89.5137,444.326 90.847,443.66 92.5,443.5C 94.5116,442.986 96.5116,442.82 98.5,443C 99.4881,445.167 100.821,447 102.5,448.5C 103.343,452.522 105.01,456.188 107.5,459.5C 85.5866,473.282 62.5866,475.616 38.5,466.5C 27.7791,460.779 19.7791,452.446 14.5,441.5C 10.3804,428.455 9.38043,415.122 11.5,401.5C 13.0739,399.898 13.7406,397.898 13.5,395.5C 13.8333,394.167 14.1667,392.833 14.5,391.5C 15.9063,391.027 16.573,390.027 16.5,388.5C 17.9063,388.027 18.573,387.027 18.5,385.5C 19.5,383.5 20.5,381.5 21.5,379.5C 23.4044,379.262 24.7377,378.262 25.5,376.5C 25.8333,375.5 26.5,374.833 27.5,374.5C 29.1667,373.5 30.5,372.167 31.5,370.5C 33.2163,368.975 35.2163,367.975 37.5,367.5C 42.9122,365.489 48.2456,363.489 53.5,361.5 Z M 80.5,392.5 C 81.5712,395.947 82.5712,399.447 83.5,403C 83.4301,403.765 83.0967,404.265 82.5,404.5C 82.1667,404.5 81.8333,404.5 81.5,404.5C 68.4957,404.667 55.4957,404.5 42.5,404C 50.7613,385.747 63.428,381.914 80.5,392.5 Z" id="svg_42" fill-opacity="1"/></g><g id="svg_43"><path style="opacity:0.047" fill="#679dfa" d="M 133.5,351.5 C 138.797,357.298 144.297,362.965 150,368.5C 154.378,364.065 159.212,360.232 164.5,357C 175.955,352.276 186.121,354.109 195,362.5C 196.298,363.946 196.465,365.279 195.5,366.5C 189.275,356.943 180.608,353.776 169.5,357C 162.438,360.735 155.938,365.235 150,370.5C 144.673,365.007 139.173,359.674 133.5,354.5C 132.347,353.313 132.347,352.313 133.5,351.5 Z" id="svg_44"/></g><g id="svg_45"><path style="opacity:0.063" fill="#7184fa" d="M 53.5,361.5 C 48.2456,363.489 42.9122,365.489 37.5,367.5C 37.9528,366.542 38.6195,365.708 39.5,365C 44.1076,363.515 48.7742,362.348 53.5,361.5 Z" id="svg_46"/></g><g id="svg_47"><path style="opacity:0.012" fill="#74a8fc" d="M 81.5,363.5 C 87.0645,363.769 91.3978,366.102 94.5,370.5C 90.2866,367.894 85.9532,365.561 81.5,363.5 Z" id="svg_48"/></g><g id="svg_49"><path style="opacity:0.024" fill="#6cb6f7" d="M 446.5,359.5 C 431.63,352.344 421.463,356.677 416,372.5C 412.75,386.321 411.75,400.321 413,414.5C 413.708,413.619 414.542,412.953 415.5,412.5C 414.609,414.609 413.442,416.609 412,418.5C 411.333,406.167 411.333,393.833 412,381.5C 412.925,372.486 416.425,364.653 422.5,358C 428.042,354.699 434.042,353.699 440.5,355C 443.274,355.624 445.274,357.124 446.5,359.5 Z" id="svg_50"/></g><g id="svg_51"><path style="opacity:0.027" fill="#3a4aff" d="M 31.5,370.5 C 30.5,372.167 29.1667,373.5 27.5,374.5C 27.8333,372.167 29.1667,370.833 31.5,370.5 Z" id="svg_52"/></g><g id="svg_53"><path style="opacity:0.027" fill="#5252ff" d="M 25.5,376.5 C 24.7377,378.262 23.4044,379.262 21.5,379.5C 20.2617,379.19 20.2617,378.69 21.5,378C 22.745,377.209 24.0783,376.709 25.5,376.5 Z" id="svg_54"/></g><g id="svg_55"><path style="opacity:0.18" fill="#8dc1fc" d="M 196.5,367.5 C 197.926,369.679 198.592,372.179 198.5,375C 198.475,380.013 197.142,384.513 194.5,388.5C 195.749,384.596 196.749,380.596 197.5,376.5C 196.698,373.551 196.364,370.551 196.5,367.5 Z" id="svg_56"/></g><g id="svg_57"><path style="opacity:0.18" fill="#6997fb" d="M 80.5,392.5 C 63.428,381.914 50.7613,385.747 42.5,404C 55.4957,404.5 68.4957,404.667 81.5,404.5C 68.3438,405.496 55.0105,405.829 41.5,405.5C 43.5976,393.07 50.931,386.07 63.5,384.5C 69.3738,384.847 74.7071,386.68 79.5,390C 80.2524,390.671 80.5858,391.504 80.5,392.5 Z" id="svg_58"/></g><g id="svg_59"><path style="opacity:0.059" fill="#928dfe" d="M 18.5,385.5 C 18.573,387.027 17.9063,388.027 16.5,388.5C 16.427,386.973 17.0937,385.973 18.5,385.5 Z" id="svg_60"/></g><g id="svg_61"><path style="opacity:0.024" fill="#6671ff" d="M 16.5,388.5 C 16.573,390.027 15.9063,391.027 14.5,391.5C 14.427,389.973 15.0937,388.973 16.5,388.5 Z" id="svg_62"/></g><g id="svg_63"><path style="opacity:0.082" fill="#88acfd" d="M 80.5,392.5 C 83.5458,396.35 84.5458,400.684 83.5,405.5C 82.8933,405.376 82.56,405.043 82.5,404.5C 83.0967,404.265 83.4301,403.765 83.5,403C 82.5712,399.447 81.5712,395.947 80.5,392.5 Z" id="svg_64"/></g><g id="svg_65"><path style="opacity:0.145" fill="#9ea6fd" d="M 13.5,395.5 C 13.7406,397.898 13.0739,399.898 11.5,401.5C 11.2594,399.102 11.9261,397.102 13.5,395.5 Z" id="svg_66"/></g><g id="svg_67"><path style="opacity:0.149" fill="#6ba8f8" d="M 198.5,332.5 C 200.927,332.523 203.26,333.023 205.5,334C 225.724,346.316 232.891,364.15 227,387.5C 216.714,408.69 202.548,427.024 184.5,442.5C 183.391,444.214 184.058,444.881 186.5,444.5C 184.372,445.629 182.039,445.796 179.5,445C 191.065,434.104 201.899,422.604 212,410.5C 216.424,404.658 220.091,398.324 223,391.5C 232.461,364.431 224.295,344.764 198.5,332.5 Z" id="svg_68"/></g><g id="svg_69"><path style="opacity:0.216" fill="#6ec2f5" d="M 455.5,424.5 C 456.54,412.495 456.54,400.495 455.5,388.5C 444.904,405.607 434.07,422.607 423,439.5C 422.289,441.367 422.789,442.867 424.5,444C 432.564,448.815 440.231,448.315 447.5,442.5C 444.327,446.79 439.994,448.79 434.5,448.5C 428.29,448.464 423.29,445.964 419.5,441C 432.394,421.768 444.894,402.268 457,382.5C 457.667,393.5 457.667,404.5 457,415.5C 456.819,418.695 456.319,421.695 455.5,424.5 Z" id="svg_70"/></g><g id="svg_71"><path style="opacity:0.133" fill="#9cbdfc" d="M 180.5,408.5 C 178.57,412.1 175.903,415.1 172.5,417.5C 174.43,413.9 177.097,410.9 180.5,408.5 Z" id="svg_72"/></g><g id="svg_73"><path style="opacity:0.118" fill="#7abffc" d="M 382.5,394.5 C 383.717,402.307 384.384,410.307 384.5,418.5C 382.731,410.743 382.065,402.743 382.5,394.5 Z" id="svg_74"/></g><g id="svg_75"><path style="opacity:0.106" fill="#93bcfa" d="M 172.5,417.5 C 167.776,423.227 162.442,428.227 156.5,432.5C 161.224,426.773 166.558,421.773 172.5,417.5 Z" id="svg_76"/></g><g id="svg_77" class="" fill="#2563eb" fill-opacity="1"><path style="opacity:0.976" fill="#2563eb" d="M 328.5,431.5 C 336.168,444.651 334.835,456.817 324.5,468C 316.134,471.592 307.468,472.425 298.5,470.5C 294.124,467.126 290.458,463.126 287.5,458.5C 286.526,452.528 286.359,446.528 287,440.5C 288.038,437.185 289.538,434.185 291.5,431.5C 292.568,429.26 294.234,427.426 296.5,426C 306.853,421.075 316.853,421.742 326.5,428C 327.823,428.816 328.489,429.983 328.5,431.5 Z" id="svg_78" fill-opacity="1"/></g><g id="svg_79"><path style="opacity:0.417" fill="#7daaf9" d="M 94.5,370.5 C 102.818,376.009 108.318,383.675 111,393.5C 113.919,404.531 114.086,415.531 111.5,426.5C 88.1667,426.5 64.8333,426.5 41.5,426.5C 64.3273,425.502 87.3273,425.169 110.5,425.5C 114.609,404.246 109.276,385.913 94.5,370.5 Z" id="svg_80"/></g><g id="svg_81"><path style="opacity:0.2" fill="#618df8" d="M 41.5,426.5 C 64.8333,426.5 88.1667,426.5 111.5,426.5C 89.0061,427.497 66.3395,427.831 43.5,427.5C 45.5158,434.877 49.5158,440.877 55.5,445.5C 47.6973,441.593 43.0307,435.26 41.5,426.5 Z" id="svg_82"/></g><g id="svg_83"><path style="opacity:0.208" fill="#82a0fc" d="M 11.5,401.5 C 9.38043,415.122 10.3804,428.455 14.5,441.5C 12.5399,438.823 11.0399,435.823 10,432.5C 9.33333,423.167 9.33333,413.833 10,404.5C 10.2321,403.263 10.7321,402.263 11.5,401.5 Z" id="svg_84"/></g><g id="svg_85"><path style="opacity:0.15" fill="#70c9f6" d="M 484.5,414.5 C 485.33,430.51 480.83,444.843 471,457.5C 454.234,474.459 434.734,478.293 412.5,469C 408.025,466.686 404.358,463.52 401.5,459.5C 426.04,478.164 449.206,476.497 471,454.5C 478.637,442.089 483.137,428.756 484.5,414.5 Z" id="svg_86"/></g><g id="svg_87"><path style="opacity:0.027" fill="#6ebaf8" d="M 328.5,431.5 C 334.786,437.873 336.952,445.539 335,454.5C 328.296,472.779 316.129,478.112 298.5,470.5C 307.468,472.425 316.134,471.592 324.5,468C 334.835,456.817 336.168,444.651 328.5,431.5 Z" id="svg_88"/></g><g id="svg_89"><path style="opacity:0.012" fill="#7aacfb" d="M 102.5,448.5 C 100.821,447 99.4881,445.167 98.5,443C 96.5116,442.82 94.5116,442.986 92.5,443.5C 94.8486,440.698 97.3486,440.364 100,442.5C 101.122,444.407 101.955,446.407 102.5,448.5 Z" id="svg_90"/></g><g id="svg_91"><path style="opacity:0.094" fill="#7fcff9" d="M 385.5,424.5 C 388.364,437.232 393.697,448.899 401.5,459.5C 396.457,455.252 392.624,449.919 390,443.5C 387.356,437.41 385.856,431.076 385.5,424.5 Z" id="svg_92"/></g><g id="svg_93"><path style="opacity:0.157" fill="#9fbefb" d="M 146.5,441.5 C 144.1,444.903 141.1,447.57 137.5,449.5C 139.9,446.097 142.9,443.43 146.5,441.5 Z" id="svg_94"/></g><g id="svg_95"><path style="opacity:0.298" fill="#9cccfb" d="M 291.5,431.5 C 289.538,434.185 288.038,437.185 287,440.5C 286.359,446.528 286.526,452.528 287.5,458.5C 284.704,453.96 283.871,448.96 285,443.5C 285.775,438.616 287.941,434.616 291.5,431.5 Z" id="svg_96"/></g><g id="svg_97"><path style="opacity:0.192" fill="#9ac2fb" d="M 55.5,445.5 C 61.0234,446.304 66.5234,447.304 72,448.5C 77.4766,447.304 82.9766,446.304 88.5,445.5C 77.4826,450.831 66.4826,450.831 55.5,445.5 Z" id="svg_98"/></g><g id="svg_99"><path style="opacity:0.224" fill="#6ba4f9" d="M 102.5,448.5 C 104.053,451.24 105.886,453.907 108,456.5C 108.788,458.165 109.122,459.831 109,461.5C 87.4115,474.509 64.5782,477.009 40.5,469C 39.6195,468.292 38.9528,467.458 38.5,466.5C 62.5866,475.616 85.5866,473.282 107.5,459.5C 105.01,456.188 103.343,452.522 102.5,448.5 Z" id="svg_100"/></g><g id="svg_101"><path style="opacity:0.286" fill="#6c9bf9" d="M 14.5,441.5 C 19.7791,452.446 27.7791,460.779 38.5,466.5C 26.393,462.061 18.393,453.727 14.5,441.5 Z" id="svg_102"/></g><g id="svg_103"><path style="opacity:0.086" fill="#66baf7" d="M 287.5,458.5 C 290.458,463.126 294.124,467.126 298.5,470.5C 292.728,468.396 289.061,464.396 287.5,458.5 Z" id="svg_104"/></g><g id="svg_105"><path style="opacity:0.411" fill="#81a7fb" d="M 137.5,449.5 C 137.217,450.289 136.717,450.956 136,451.5C 135.501,457.491 135.334,463.491 135.5,469.5C 147.833,469.5 160.167,469.5 172.5,469.5C 172.833,470.167 173.167,470.833 173.5,471.5C 160.496,471.667 147.496,471.5 134.5,471C 133.358,464.916 133.191,458.749 134,452.5C 134.422,450.574 135.589,449.574 137.5,449.5 Z" id="svg_106"/></g><g id="svg_107"><path style="opacity:0.335" fill="#84c4f8" d="M 173.5,471.5 C 173.167,470.833 172.833,470.167 172.5,469.5C 192.833,469.5 213.167,469.5 233.5,469.5C 233.5,461.167 233.5,452.833 233.5,444.5C 217.991,444.83 202.658,444.496 187.5,443.5C 203.706,443.076 219.373,442.91 234.5,443C 235.357,443.689 236.023,444.522 236.5,445.5C 235.696,453.785 235.196,462.118 235,470.5C 214.474,470.302 193.974,470.636 173.5,471.5 Z" id="svg_108"/></g></g></svg>